<svg width="24" height="20" viewBox="0 0 24 20" fill="none" xmlns="http://www.w3.org/2000/svg">
<path d="M14.7511 4.625C14.5832 4.79293 14.4712 4.99561 14.4042 5.21279L14.3324 5.14094C13.6665 4.47509 12.635 4.42367 12.0331 5.0256C11.8651 5.19353 11.7534 5.39601 11.6864 5.61319L11.633 5.55975C10.9674 4.89414 9.93583 4.84271 9.33369 5.44486C9.16575 5.61279 9.05403 5.81526 8.98701 6.03244L8.30804 5.35347C7.64219 4.68763 6.61067 4.6362 6.00853 5.23835C5.40638 5.84049 5.45804 6.87224 6.12365 7.53786L10.3156 11.7298C10.0983 11.7971 9.89578 11.9088 9.72805 12.0765C9.1257 12.6789 9.17757 13.7104 9.84295 14.3758L12.4633 16.9961C12.4642 16.997 12.4647 16.9979 12.4654 16.9986C12.467 17.0002 12.4686 17.0014 12.4702 17.003L12.6567 17.1896C12.689 17.2218 12.7248 17.2472 12.762 17.269C15.3304 19.5699 19.0961 19.6777 21.3315 17.4423C23.6534 15.1204 23.4543 11.1434 20.8874 8.57652L17.0508 4.73992C16.3848 4.07472 15.3533 4.02286 14.7511 4.625ZM20.6399 16.7515C18.6641 18.7273 15.2805 18.5595 13.0946 16.3781L10.4676 13.7512C10.1832 13.4667 10.1611 13.0254 10.4186 12.7679C10.6761 12.5104 11.1174 12.5325 11.4019 12.8169L13.0187 14.4337C13.2094 14.6244 13.5042 14.6392 13.6767 14.4667C13.8492 14.2941 13.8344 13.9994 13.6437 13.8087L6.7483 6.91321C6.46363 6.62854 6.44153 6.18724 6.69906 5.92971C6.95659 5.67219 7.39789 5.69428 7.68256 5.97895L12.8451 11.1415C13.0358 11.3322 13.3306 11.347 13.5031 11.1744C13.6756 11.0019 13.6609 10.7071 13.4702 10.5164L10.0732 7.11949C9.78879 6.83505 9.76669 6.39375 10.0242 6.13622C10.2817 5.8787 10.723 5.90079 11.0075 6.18523L15.088 10.2657C15.2787 10.4564 15.5735 10.4712 15.746 10.2987C15.9185 10.1262 15.9038 9.83139 15.7131 9.64068L12.7728 6.70047C12.4882 6.41579 12.4661 5.97449 12.7236 5.71697C12.9809 5.45965 13.4222 5.48174 13.7069 5.76641L17.5016 9.56111C17.6923 9.75181 17.9871 9.76657 18.1596 9.59405C18.3321 9.42153 18.3174 9.12674 18.1267 8.93604L15.4907 6.30007C15.206 6.0154 15.1839 5.5741 15.4417 5.31636C15.699 5.05905 16.1403 5.08114 16.4249 5.36581L20.2613 9.20219C22.4477 11.3877 22.6172 14.7742 20.6399 16.7515Z" fill="white"/>
<path d="M2.56442 1.79507C2.39753 1.96197 2.41185 2.24798 2.59656 2.43269L4.22214 4.05826C4.40685 4.24298 4.69286 4.2573 4.85975 4.09041C5.02706 3.9231 5.01274 3.63708 4.82803 3.45237L3.20246 1.8268C3.01774 1.64208 2.73173 1.62777 2.56442 1.79507Z" fill="white"/>
<path d="M4.44484 8.51098L2.97407 9.98175C2.80718 10.1486 2.8215 10.4347 3.00598 10.6191C3.19092 10.8041 3.47694 10.8184 3.64383 10.6515L5.1146 9.18074C5.2817 9.01364 5.26738 8.72762 5.08244 8.54268C4.89816 8.35799 4.61194 8.34388 4.44484 8.51098Z" fill="white"/>
<path d="M1.26366 5.78317C1.02197 5.77151 0.822827 5.97157 0.835279 6.21155C0.847732 6.46027 1.06011 6.67306 1.30885 6.68596L3.49803 6.79534C3.61802 6.80156 3.72905 6.76008 3.80989 6.67924C3.89115 6.59798 3.93242 6.48716 3.92638 6.36652C3.9133 6.11842 3.70118 5.9063 3.45264 5.8932L1.26366 5.78317Z" fill="white"/>
<path d="M7.13494 0.385413C7.04514 0.296028 6.93005 0.243447 6.80988 0.237868C6.56861 0.225789 6.36917 0.424306 6.38084 0.665992L6.49086 2.85498C6.49644 2.97515 6.54907 3.09112 6.63866 3.18071C6.72826 3.2703 6.84401 3.32314 6.96396 3.32849C7.08459 3.33453 7.19586 3.29328 7.27649 3.21264C7.35712 3.13201 7.39862 3.02141 7.39256 2.90034L7.28297 0.711376C7.27716 0.590972 7.22454 0.475006 7.13494 0.385413Z" fill="white"/>
<path d="M10.7167 2.2391L9.24616 3.70966C9.07927 3.87656 9.09358 4.16257 9.27807 4.34705C9.46301 4.532 9.74903 4.54632 9.91592 4.37942L11.3865 2.90886C11.5536 2.74176 11.5393 2.45575 11.3543 2.2708C11.1698 2.08632 10.8838 2.072 10.7167 2.2391Z" fill="white"/>
<path d="M14.7511 4.625C14.5832 4.79293 14.4712 4.99561 14.4042 5.21279L14.3324 5.14094C13.6665 4.47509 12.635 4.42367 12.0331 5.0256C11.8651 5.19353 11.7534 5.39601 11.6864 5.61319L11.633 5.55975C10.9674 4.89414 9.93583 4.84271 9.33369 5.44486C9.16575 5.61279 9.05403 5.81526 8.98701 6.03244L8.30804 5.35347C7.64219 4.68763 6.61067 4.6362 6.00853 5.23835C5.40638 5.84049 5.45804 6.87224 6.12365 7.53786L10.3156 11.7298C10.0983 11.7971 9.89578 11.9088 9.72805 12.0765C9.1257 12.6789 9.17757 13.7104 9.84295 14.3758L12.4633 16.9961C12.4642 16.997 12.4647 16.9979 12.4654 16.9986C12.467 17.0002 12.4686 17.0014 12.4702 17.003L12.6567 17.1896C12.689 17.2218 12.7248 17.2472 12.762 17.269C15.3304 19.5699 19.0961 19.6777 21.3315 17.4423C23.6534 15.1204 23.4543 11.1434 20.8874 8.57652L17.0508 4.73992C16.3848 4.07472 15.3533 4.02286 14.7511 4.625ZM20.6399 16.7515C18.6641 18.7273 15.2805 18.5595 13.0946 16.3781L10.4676 13.7512C10.1832 13.4667 10.1611 13.0254 10.4186 12.7679C10.6761 12.5104 11.1174 12.5325 11.4019 12.8169L13.0187 14.4337C13.2094 14.6244 13.5042 14.6392 13.6767 14.4667C13.8492 14.2941 13.8344 13.9994 13.6437 13.8087L6.7483 6.91321C6.46363 6.62854 6.44153 6.18724 6.69906 5.92971C6.95659 5.67219 7.39789 5.69428 7.68256 5.97895L12.8451 11.1415C13.0358 11.3322 13.3306 11.347 13.5031 11.1744C13.6756 11.0019 13.6609 10.7071 13.4702 10.5164L10.0732 7.11949C9.78879 6.83505 9.76669 6.39375 10.0242 6.13622C10.2817 5.8787 10.723 5.90079 11.0075 6.18523L15.088 10.2657C15.2787 10.4564 15.5735 10.4712 15.746 10.2987C15.9185 10.1262 15.9038 9.83139 15.7131 9.64068L12.7728 6.70047C12.4882 6.41579 12.4661 5.97449 12.7236 5.71697C12.9809 5.45965 13.4222 5.48174 13.7069 5.76641L17.5016 9.56111C17.6923 9.75181 17.9871 9.76657 18.1596 9.59405C18.3321 9.42153 18.3174 9.12674 18.1267 8.93604L15.4907 6.30007C15.206 6.0154 15.1839 5.5741 15.4417 5.31636C15.699 5.05905 16.1403 5.08114 16.4249 5.36581L20.2613 9.20219C22.4477 11.3877 22.6172 14.7742 20.6399 16.7515Z" stroke="white" stroke-width="0.12356"/>
<path d="M2.56442 1.79507C2.39753 1.96197 2.41185 2.24798 2.59656 2.43269L4.22214 4.05826C4.40685 4.24298 4.69286 4.2573 4.85975 4.09041C5.02706 3.9231 5.01274 3.63708 4.82803 3.45237L3.20246 1.8268C3.01774 1.64208 2.73173 1.62777 2.56442 1.79507Z" stroke="white" stroke-width="0.12356"/>
<path d="M4.44484 8.51098L2.97407 9.98175C2.80718 10.1486 2.8215 10.4347 3.00598 10.6191C3.19092 10.8041 3.47694 10.8184 3.64383 10.6515L5.1146 9.18074C5.2817 9.01364 5.26738 8.72762 5.08244 8.54268C4.89816 8.35799 4.61194 8.34388 4.44484 8.51098Z" stroke="white" stroke-width="0.12356"/>
<path d="M1.26366 5.78317C1.02197 5.77151 0.822827 5.97157 0.835279 6.21155C0.847732 6.46027 1.06011 6.67306 1.30885 6.68596L3.49803 6.79534C3.61802 6.80156 3.72905 6.76008 3.80989 6.67924C3.89115 6.59798 3.93242 6.48716 3.92638 6.36652C3.9133 6.11842 3.70118 5.9063 3.45264 5.8932L1.26366 5.78317Z" stroke="white" stroke-width="0.12356"/>
<path d="M7.13494 0.385413C7.04514 0.296028 6.93005 0.243447 6.80988 0.237868C6.56861 0.225789 6.36917 0.424306 6.38084 0.665992L6.49086 2.85498C6.49644 2.97515 6.54907 3.09112 6.63866 3.18071C6.72826 3.2703 6.84401 3.32314 6.96396 3.32849C7.08459 3.33453 7.19586 3.29328 7.27649 3.21264C7.35712 3.13201 7.39862 3.02141 7.39256 2.90034L7.28297 0.711376C7.27716 0.590972 7.22454 0.475006 7.13494 0.385413Z" stroke="white" stroke-width="0.12356"/>
<path d="M10.7167 2.2391L9.24616 3.70966C9.07927 3.87656 9.09358 4.16257 9.27807 4.34705C9.46301 4.532 9.74903 4.54632 9.91592 4.37942L11.3865 2.90886C11.5536 2.74176 11.5393 2.45575 11.3543 2.2708C11.1698 2.08632 10.8838 2.072 10.7167 2.2391Z" stroke="white" stroke-width="0.12356"/>
</svg>
